<svg viewBox="0 0 55 56" fill="none" xmlns="http://www.w3.org/2000/svg">
<g clip-path="url(#clip0_22_338)">
<path d="M18.3334 55.5C23.3934 55.5 27.5 51.3933 27.5 46.3333V37.1666H18.3334C13.2734 37.1666 9.16669 41.2733 9.16669 46.3333C9.16669 51.3933 13.2734 55.5 18.3334 55.5Z" fill="#0ACF83"/>
<path d="M9.16669 28C9.16669 22.94 13.2734 18.8334 18.3334 18.8334H27.5V37.1667H18.3334C13.2734 37.1667 9.16669 33.06 9.16669 28Z" fill="#A259FF"/>
<path d="M9.16669 9.66667C9.16669 4.60667 13.2734 0.5 18.3334 0.5H27.5V18.8333H18.3334C13.2734 18.8333 9.16669 14.7267 9.16669 9.66667Z" fill="#F24E1E"/>
<path d="M27.5 0.5H36.6667C41.7267 0.5 45.8333 4.60667 45.8333 9.66667C45.8333 14.7267 41.7267 18.8333 36.6667 18.8333H27.5V0.5Z" fill="#FF7262"/>
<path d="M45.8333 28C45.8333 33.06 41.7267 37.1667 36.6667 37.1667C31.6067 37.1667 27.5 33.06 27.5 28C27.5 22.94 31.6067 18.8334 36.6667 18.8334C41.7267 18.8334 45.8333 22.94 45.8333 28Z" fill="#1ABCFE"/>
</g>
<defs>
<clipPath id="clip0_22_338">
<rect width="55" height="55" fill="white" transform="translate(0 0.5)"/>
</clipPath>
</defs>
</svg>
