<svg width="30" height="26" viewBox="0 0 30 26" fill="none" xmlns="http://www.w3.org/2000/svg">
<g clip-path="url(#clip0_66_207)">
<path d="M8.36189 20.63C8.36189 20.7334 8.24597 20.8161 8.0998 20.8161C7.93347 20.8316 7.81754 20.7489 7.81754 20.63C7.81754 20.5266 7.93347 20.4439 8.07964 20.4439C8.23085 20.4284 8.36189 20.5111 8.36189 20.63ZM6.79435 20.3973C6.75907 20.5007 6.85988 20.6196 7.01109 20.6506C7.14214 20.7023 7.29335 20.6506 7.32359 20.5472C7.35383 20.4439 7.25806 20.325 7.10685 20.2784C6.97581 20.2423 6.82964 20.2939 6.79435 20.3973ZM9.02218 20.3095C8.87601 20.3456 8.7752 20.4439 8.79032 20.5628C8.80544 20.6661 8.93649 20.7334 9.0877 20.6972C9.23387 20.661 9.33468 20.5628 9.31956 20.4594C9.30443 20.3611 9.16835 20.2939 9.02218 20.3095ZM12.3387 0.5C5.34778 0.5 0 5.94346 0 13.1135C0 18.8465 3.51815 23.7523 8.54335 25.4789C9.18851 25.5978 9.41532 25.1894 9.41532 24.8534C9.41532 24.5329 9.4002 22.765 9.4002 21.6794C9.4002 21.6794 5.87198 22.4548 5.13105 20.1389C5.13105 20.1389 4.55645 18.6345 3.72984 18.2468C3.72984 18.2468 2.5756 17.4352 3.81048 17.4507C3.81048 17.4507 5.06552 17.5541 5.75605 18.7845C6.85988 20.7799 8.70968 20.2061 9.43044 19.8649C9.54637 19.0378 9.87399 18.4639 10.2369 18.1228C7.41935 17.8023 4.57661 17.3835 4.57661 12.4105C4.57661 10.9889 4.95968 10.2755 5.76613 9.36566C5.63508 9.02964 5.20665 7.64422 5.89718 5.85558C6.9506 5.51957 9.375 7.25134 9.375 7.25134C10.3831 6.96185 11.4667 6.81194 12.5403 6.81194C13.6139 6.81194 14.6976 6.96185 15.7056 7.25134C15.7056 7.25134 18.13 5.5144 19.1835 5.85558C19.874 7.64939 19.4456 9.02964 19.3145 9.36566C20.121 10.2807 20.6149 10.994 20.6149 12.4105C20.6149 17.399 17.6462 17.7971 14.8286 18.1228C15.2923 18.5312 15.6855 19.3066 15.6855 20.5214C15.6855 22.2635 15.6704 24.4192 15.6704 24.8431C15.6704 25.1791 15.9022 25.5875 16.5423 25.4686C21.5827 23.7523 25 18.8465 25 13.1135C25 5.94346 19.3296 0.5 12.3387 0.5ZM4.89919 18.3295C4.83367 18.3812 4.84879 18.5001 4.93448 18.5984C5.01512 18.6811 5.13105 18.7173 5.19657 18.6501C5.2621 18.5984 5.24698 18.4795 5.16129 18.3812C5.08065 18.2985 4.96472 18.2623 4.89919 18.3295ZM4.35484 17.9108C4.31956 17.978 4.36996 18.0607 4.47077 18.1124C4.55141 18.1641 4.65222 18.1486 4.6875 18.0762C4.72278 18.009 4.67238 17.9263 4.57157 17.8746C4.47077 17.8436 4.39012 17.8591 4.35484 17.9108ZM5.9879 19.7512C5.90726 19.8184 5.9375 19.9734 6.05343 20.0717C6.16935 20.1906 6.31552 20.2061 6.38105 20.1234C6.44657 20.0562 6.41633 19.9011 6.31552 19.8028C6.20464 19.6839 6.05343 19.6684 5.9879 19.7512ZM5.41331 18.9912C5.33266 19.0429 5.33266 19.1773 5.41331 19.2962C5.49395 19.4151 5.63004 19.4668 5.69556 19.4151C5.77621 19.3479 5.77621 19.2135 5.69556 19.0946C5.625 18.9757 5.49395 18.924 5.41331 18.9912Z" fill="white"/>
</g>
<defs>
<clipPath id="clip0_66_207">
<rect width="30" height="25" fill="white" transform="translate(0 0.5)"/>
</clipPath>
</defs>
</svg>
