<svg viewBox="0 0 55 56" fill="none" xmlns="http://www.w3.org/2000/svg">
<path d="M8.17998 49.4311L3.88095 1.21375H51.1191L46.8153 49.4238L27.4712 54.7863L8.17998 49.4311Z" fill="#E44D26"/>
<path d="M27.5 50.6875L43.1312 46.3537L46.8089 5.15613H27.5V50.6875Z" fill="#F16529"/>
<path d="M27.5 23.0392H19.6745L19.134 16.9832H27.5V11.0698H12.6711L12.8128 12.6562L14.2661 28.953H27.5V23.0392ZM27.5 38.3975L27.4738 38.4048L20.888 36.6259L20.4673 31.9101H14.5303L15.3587 41.1952L27.4729 44.558L27.5 44.5506V38.3975Z" fill="#EBEBEB"/>
<path d="M27.4794 23.0392V28.953H34.7613L34.0751 36.6225L27.4794 38.4027V44.5554L39.603 41.1952L39.6919 40.1962L41.0816 24.6273L41.2255 23.0392H39.6322H27.4794ZM27.4794 11.0698V16.9832H41.7639L41.8825 15.6546L42.1523 12.6562L42.2937 11.0698H27.4794Z" fill="white"/>
</svg>
