<svg viewBox="0 0 55 56" fill="none" xmlns="http://www.w3.org/2000/svg">
<g clip-path="url(#clip0_22_254)">
<path d="M0.859375 0.929688V54.6406H54.5703V0.929688H0.859375ZM29.2699 46.697C28.4771 48.3079 26.9638 49.3662 25.2102 49.8771C22.5156 50.4959 19.9384 50.1431 18.0211 48.9924C16.738 48.2052 15.736 46.9935 15.0558 45.5974L19.1464 43.0923C19.1821 43.1074 19.2895 43.3016 19.433 43.5525C19.9547 44.4265 20.4046 45.0453 21.2889 45.4797C22.1577 45.7762 24.0651 45.9657 24.8016 44.4368C25.2514 43.6591 25.1084 41.1592 25.1084 38.3933C25.1079 34.047 25.1281 29.7188 25.1281 25.4219H30.1593C30.1593 30.1484 30.1851 34.6249 30.1593 39.2372C30.1701 42.0645 30.4154 44.5851 29.2699 46.697ZM50.1415 45.2756C48.3927 51.2577 38.6422 51.4519 34.7458 47.4996C33.9225 46.5694 33.4065 46.0834 32.9154 45.0096C34.986 43.8185 34.986 43.8185 37.0008 42.6528C38.0952 44.335 39.1071 45.2601 40.9277 45.6387C43.3976 45.9403 45.8825 45.0917 45.3252 42.4684C44.7524 40.326 40.2677 39.8048 37.2157 37.5137C34.1172 35.4327 33.391 30.3762 35.9373 27.487C36.786 26.4183 38.2332 25.6208 39.7517 25.2375L41.3364 25.0326C44.379 24.9711 46.2808 25.7746 47.6768 27.3336C48.0653 27.7271 48.3824 28.1517 48.9753 29.0716C47.3546 30.1046 47.3597 30.0947 45.0381 31.5978C44.5423 30.5296 43.7194 29.8593 42.8497 29.5679C41.4996 29.1589 39.7972 29.6036 39.444 31.0302C39.3216 31.4697 39.3469 31.8788 39.5416 32.605C40.0886 33.8523 41.9242 34.3946 43.5707 35.1513C48.3106 37.0737 49.9112 39.1349 50.3048 41.5884C50.6838 43.7008 50.2133 45.0711 50.1415 45.2756Z" fill="#F0DB4F"/>
</g>
<defs>
<clipPath id="clip0_22_254">
<rect width="55" height="55" fill="white" transform="translate(0 0.5)"/>
</clipPath>
</defs>
</svg>
