<svg viewBox="0 0 55 56" fill="none" xmlns="http://www.w3.org/2000/svg">
<path d="M27.5 42.8958C42.6846 42.8958 55 36.2316 55 28C55 19.7706 42.6846 13.1041 27.5 13.1041C12.3154 13.1041 0 19.7683 0 28C0 36.2316 12.3154 42.8958 27.5 42.8958Z" fill="#878EB7"/>
<path d="M11.5248 36.3462L12.2719 32.3816C15.8056 32.3816 17.9942 32.6475 20.0223 30.6927C22.2635 28.5683 22.8502 24.7893 21.2506 22.8941C20.4188 21.9018 19.0781 21.4137 17.2563 21.4137H11.1788L8.36917 36.3462H11.5248ZM13.9035 23.7696C17.1692 23.7696 19.3875 23.4075 18.7504 26.806V26.8037C18.0721 30.3879 15.675 30.0166 12.7256 30.0166L13.9035 23.7696ZM24.6538 32.3633L26.2694 23.8131C28.8223 23.8131 29.8788 23.7077 30.344 24.221C30.8252 24.7527 30.5777 25.3371 29.2531 32.3656H32.4317C33.8067 25.0987 34.4163 23.5587 33.1444 22.3556C31.9321 21.2052 29.425 21.4068 26.7163 21.4068L27.4633 17.4423H24.326L21.5188 32.3633H24.6538ZM36.1785 36.3462L36.9256 32.3816C40.6381 32.3816 42.6915 32.6016 44.676 30.6927C46.9173 28.5683 47.504 24.7893 45.9044 22.8941C45.0702 21.9018 43.7296 21.416 41.9077 21.416H35.8325L33.0138 36.3485L36.1785 36.3462ZM38.5504 23.7696C41.8344 23.7696 44.0344 23.4075 43.3973 26.806V26.8037C42.7098 30.4429 40.244 30.0166 37.3725 30.0166L38.5504 23.7696Z" fill="#23282C"/>
</svg>
