<svg viewBox="0 0 56 56" fill="none" xmlns="http://www.w3.org/2000/svg">
<g clip-path="url(#clip0_22_377)">
<path d="M47.9352 41.1725C51.7531 41.1725 53.1648 38.5095 54.4894 34.5175C55.8644 30.4039 55.8048 26.4508 54.4894 21.1845C53.5429 17.3918 51.7531 14.5295 47.9352 14.5295H43.0127V20.3504C43.0127 24.8695 39.1811 28.676 34.8108 28.676H21.7025C18.1183 28.676 15.1483 31.7445 15.1483 35.3402V47.8389C15.1483 51.3979 18.2421 53.4856 21.7025 54.5031C25.8527 55.7177 29.8425 55.9377 34.8131 54.5031C38.1154 53.5452 41.3696 51.6156 41.3696 47.8389V42.8408H28.2681V41.1702L47.9352 41.1725Z" fill="#F2BB30"/>
<path d="M8.3925 41.1747H12.8979V35.1843C12.8979 30.8484 16.6425 27.0328 21.0998 27.0328H34.2104C37.8565 27.0328 40.7646 24.0261 40.7646 20.3663V7.85384C40.7646 4.29259 37.7694 1.62739 34.2104 1.02697C29.815 0.302802 25.0392 0.339469 21.0998 1.04072L21.1021 1.03843C15.5517 2.01926 14.5456 4.0703 14.5456 7.86301V12.8588H27.67V14.5318H9.62084C5.80063 14.5318 2.46167 16.828 1.42126 21.1891C0.21813 26.1849 0.167714 29.3016 1.42126 34.522C2.35167 38.3995 4.57688 41.1747 8.3925 41.1747Z" fill="#35668F"/>
<path d="M28 28.676H21.7025C18.1183 28.676 15.1483 31.7446 15.1483 35.3402V47.8389C15.1483 51.3979 18.2421 53.4856 21.7025 54.5031C23.7925 55.115 25.8436 55.4748 28 55.4977V28.676Z" fill="#D3A32A"/>
<path d="M27.6035 0.5C25.3256 0.5 23.1027 0.685625 21.0975 1.04083L21.0998 1.03854C15.5517 2.01938 14.5456 4.07042 14.5456 7.86313V12.859H27.67V14.5319H9.62083C5.80063 14.5319 2.46167 16.8281 1.42125 21.1892C0.825417 23.6665 0.511458 25.6831 0.5 27.7204V27.9519C0.511458 29.9502 0.811667 31.9875 1.42125 34.5221C2.35167 38.3996 4.57688 41.1748 8.3925 41.1748H12.8979V35.1844C12.8979 30.8485 16.6425 27.0329 21.0998 27.0329H28V0.502292C27.8671 0.5 27.7365 0.5 27.6035 0.5Z" fill="#2E597C"/>
<path d="M42.2794 17.3589H42.2815V17.3506L42.2794 17.3589Z" fill="white"/>
<path d="M35.6358 46.1706C36.9971 46.1706 38.104 47.289 38.104 48.664C38.104 50.0527 36.9994 51.1688 35.6358 51.1688C34.2837 51.1688 33.1677 50.039 33.1677 48.664C33.1815 47.2752 34.2883 46.1706 35.6358 46.1706ZM20.2771 9.52C18.9158 9.52 17.8112 8.40167 17.8112 7.02667C17.825 5.64021 18.9158 4.52417 20.2771 4.52417C21.6292 4.52417 22.7452 5.65396 22.7452 7.02896C22.7452 8.40167 21.6406 9.52 20.2771 9.52Z" fill="white"/>
<path d="M20.2771 4.52417C18.9158 4.52417 17.8227 5.64021 17.8112 7.02896C17.8112 8.40396 18.9158 9.52229 20.2771 9.52229V4.52417ZM35.6358 46.1706C34.2746 46.1706 33.1815 47.2867 33.17 48.6754C33.17 50.0504 34.2746 51.1688 35.6358 51.1688V46.1706Z" fill="#DEDEDE"/>
</g>
<defs>
<clipPath id="clip0_22_377">
<rect width="55" height="55" fill="white" transform="translate(0.5 0.5)"/>
</clipPath>
</defs>
</svg>
