<svg viewBox="0 0 56 56" fill="none" xmlns="http://www.w3.org/2000/svg">
<g clip-path="url(#clip0_22_371)">
<path d="M0.5 28V55.5H55.5V0.5H0.5V28Z" fill="#1677C7"/>
<path d="M28 0.5H0.5V55.5H28V0.5Z" fill="#1368AD"/>
<path d="M33.8735 45.4763C34.121 45.3342 35.0446 44.8025 35.9177 44.2961L37.499 43.3794L37.8313 43.8698C38.2965 44.5756 39.3048 45.545 39.9167 45.8704C41.6721 46.7963 44.0806 46.6679 45.2677 45.6C45.71 45.2242 45.9873 44.6696 45.9873 44.0531L45.985 43.9454V43.95C45.985 43.3129 45.9048 43.0333 45.5725 42.5544C45.1463 41.9425 44.2731 41.4315 41.7935 40.3521C38.9588 39.1306 37.735 38.3744 36.619 37.169C35.9452 36.4035 35.425 35.48 35.1225 34.4694L35.1088 34.419C34.9002 33.6421 34.8475 31.6919 35.0125 30.9104C35.5969 28.1696 37.6663 26.2606 40.6523 25.6923C41.6217 25.509 43.8744 25.5754 44.8254 25.8138V25.8161C46.2233 26.1667 47.2867 26.7854 48.2652 27.7983C48.7717 28.3369 49.5233 29.3246 49.5829 29.5606C49.6013 29.6317 47.2088 31.2336 45.7604 32.1342C45.7077 32.1663 45.4969 31.9417 45.2631 31.5933C44.5527 30.5621 43.8125 30.1175 42.6781 30.0373C41.0098 29.9227 39.9373 30.7958 39.9442 32.2556L39.9419 32.3404C39.9419 32.6842 40.029 33.0119 40.1825 33.2938L40.1779 33.2846C40.5469 34.0431 41.2275 34.4992 43.3656 35.4227C47.305 37.1163 48.9894 38.2323 50.0367 39.8227C51.2054 41.5942 51.469 44.4244 50.6737 46.5281C49.8029 48.8152 47.6373 50.369 44.5894 50.88C43.6475 51.0473 41.4108 51.0221 40.4002 50.841C38.191 50.4469 36.0965 49.3538 34.804 47.9215C34.2975 47.3669 33.3098 45.9071 33.3717 45.804C33.3946 45.7627 33.6215 45.6206 33.8735 45.4763ZM12.5519 28.1467C12.5519 26.9252 12.5748 25.9031 12.6115 25.8802C12.6367 25.8413 16.9954 25.8229 22.2754 25.8321L31.889 25.8573L31.9142 28.1031L31.9325 30.3558H24.771V50.6967H19.7042V30.3558H12.5519V28.1467Z" fill="white"/>
<path d="M48.641 38.285H37.8679C38.7663 38.945 39.9327 39.5454 41.7935 40.3475C44.2754 41.4269 45.1463 41.9402 45.5725 42.5498C45.9048 43.0288 45.985 43.3084 45.985 43.9454V43.9409L45.9873 44.0486C45.9873 44.6673 45.71 45.2196 45.2677 45.5954C44.6146 46.1821 43.5925 46.4846 42.5131 46.4846C41.6285 46.4846 40.7073 46.2829 39.9167 45.8659C39.3048 45.5427 38.2942 44.5734 37.8313 43.8652L37.499 43.3748L35.9177 44.2915C35.0446 44.7979 34.121 45.3296 33.8735 45.4717C33.6215 45.6161 33.3946 45.7582 33.3694 45.7948C33.3075 45.8979 34.2952 47.3577 34.8017 47.9123C36.0942 49.3446 38.1888 50.4377 40.3979 50.8319C40.9502 50.9304 41.8669 50.9832 42.7377 50.9832C43.4642 50.9832 44.1586 50.9465 44.5871 50.8709C47.635 50.3598 49.8006 48.8061 50.6715 46.519C51.4667 44.4152 51.2031 41.585 50.0344 39.8136C49.67 39.2659 49.2277 38.7686 48.641 38.285Z" fill="#DEDEDE"/>
<path d="M24.771 38.285H19.7042V50.699H24.771V38.285Z" fill="#DEDEDE"/>
</g>
<defs>
<clipPath id="clip0_22_371">
<rect width="55" height="55" fill="white" transform="translate(0.5 0.5)"/>
</clipPath>
</defs>
</svg>
