<svg width="25" height="26" viewBox="0 0 25 26" fill="none" xmlns="http://www.w3.org/2000/svg">
<path d="M21.2556 4.13281C18.9174 1.78906 15.8036 0.5 12.4944 0.5C5.66406 0.5 0.106027 6.05804 0.106027 12.8884C0.106027 15.0703 0.675223 17.202 1.75781 19.0826L0 25.5L6.56808 23.7757C8.37612 24.7634 10.4129 25.2824 12.4888 25.2824H12.4944C19.3192 25.2824 25 19.7243 25 12.894C25 9.58482 23.5938 6.47656 21.2556 4.13281ZM12.4944 23.1953C10.6417 23.1953 8.82812 22.6987 7.24888 21.7612L6.875 21.5379L2.97991 22.5592L4.01786 18.7589L3.77232 18.3683C2.73996 16.7277 2.19866 14.8359 2.19866 12.8884C2.19866 7.21317 6.8192 2.59263 12.5 2.59263C15.2511 2.59263 17.8348 3.66406 19.7768 5.61161C21.7188 7.55915 22.9129 10.1429 22.9074 12.894C22.9074 18.5748 18.1696 23.1953 12.4944 23.1953ZM18.1417 15.4833C17.8348 15.327 16.3114 14.5792 16.0268 14.4788C15.7422 14.3728 15.5357 14.3225 15.3292 14.635C15.1228 14.9475 14.5312 15.6395 14.3471 15.8516C14.1685 16.058 13.9844 16.0859 13.6775 15.9297C11.8583 15.0201 10.6641 14.3058 9.46429 12.2467C9.14621 11.6998 9.78237 11.7388 10.3739 10.5558C10.4743 10.3493 10.4241 10.1708 10.346 10.0145C10.2679 9.85826 9.64844 8.33482 9.39174 7.7154C9.14062 7.11272 8.88393 7.19643 8.6942 7.18527C8.51562 7.17411 8.30915 7.17411 8.10268 7.17411C7.8962 7.17411 7.56138 7.25223 7.27679 7.55915C6.99219 7.87165 6.1942 8.61942 6.1942 10.1429C6.1942 11.6663 7.30469 13.1395 7.45536 13.346C7.61161 13.5525 9.63728 16.6775 12.7455 18.0223C14.7098 18.8705 15.4799 18.9431 16.4621 18.798C17.0592 18.7087 18.2924 18.0502 18.5491 17.3248C18.8058 16.5993 18.8058 15.9799 18.7277 15.8516C18.6551 15.7121 18.4487 15.6339 18.1417 15.4833Z" fill="white"/>
</svg>
