<svg viewBox="0 0 56 56" fill="none" xmlns="http://www.w3.org/2000/svg">
<path d="M8.58415 49.5372L4.26407 1.08093H51.7359L47.4116 49.5299L27.9712 54.9195L8.58415 49.5372Z" fill="#1572B6"/>
<path d="M28.0004 50.8L43.7094 46.4447L47.4051 5.0426H28.0004V50.8Z" fill="#33A9DC"/>
<path d="M28.0004 22.5984H35.8646L36.4077 16.5127H28.0004V10.5697H42.9028L42.7602 12.1643L41.2993 28.5414H28.0004V22.5984Z" fill="white"/>
<path d="M28.0357 38.0328L28.0094 38.0405L21.391 36.2534L20.9677 31.5135H15.0028L15.8351 40.8451L28.0086 44.2237L28.0357 44.216V38.0328Z" fill="#EBEBEB"/>
<path d="M35.3593 28.29L34.6434 36.2487L28.015 38.0379V44.2211L40.1984 40.8446L40.2878 39.8405L41.3216 28.29H35.3593Z" fill="white"/>
<path d="M28.0206 10.5697V16.5127H13.6656L13.5466 15.1772L13.2759 12.1643L13.1337 10.5697H28.0206ZM28.0004 22.5992V28.5422H21.4653L21.3463 27.2068L21.0752 24.1938L20.9334 22.5992H28.0004Z" fill="#EBEBEB"/>
</svg>
