<svg width="30" height="26" viewBox="0 0 30 26" fill="none" xmlns="http://www.w3.org/2000/svg">
<g clip-path="url(#clip0_66_205)">
<path d="M7.59598 25.4997H2.41295V8.80884H7.59598V25.4997ZM5.00167 6.53205C3.34431 6.53205 2 5.15928 2 3.50192C2 2.70582 2.31625 1.94234 2.87917 1.37941C3.44209 0.816491 4.20558 0.500244 5.00167 0.500244C5.79777 0.500244 6.56125 0.816491 7.12418 1.37941C7.6871 1.94234 8.00335 2.70582 8.00335 3.50192C8.00335 5.15928 6.65848 6.53205 5.00167 6.53205ZM26.9944 25.4997H21.8225V17.3747C21.8225 15.4383 21.7835 12.955 19.1278 12.955C16.433 12.955 16.0201 15.0588 16.0201 17.2352V25.4997H10.8426V8.80884H15.8136V11.0856H15.8862C16.5781 9.77424 18.2684 8.39031 20.7902 8.39031C26.0357 8.39031 27 11.8446 27 16.3312V25.4997H26.9944Z" fill="white"/>
</g>
<defs>
<clipPath id="clip0_66_205">
<rect width="30" height="24.9994" fill="white" transform="translate(0 0.500244)"/>
</clipPath>
</defs>
</svg>
