<svg viewBox="0 0 55 56" fill="none" xmlns="http://www.w3.org/2000/svg">
<path fill-rule="evenodd" clip-rule="evenodd" d="M37.8288 18.8958C38.5185 20.8908 39.0152 22.9275 39.1785 25.0386C39.3813 27.6575 39.2885 30.258 38.7363 32.834C38.7213 32.9049 38.6895 32.9715 38.6658 33.0402C38.4927 33.0406 38.3161 33.0191 38.1468 33.0454C36.7163 33.2701 35.2872 33.503 33.8581 33.7346C32.3808 33.9739 30.9014 34.2038 29.4267 34.4595C28.9042 34.5497 28.2575 34.4418 28.0465 35.1646C28.0405 35.1843 27.9804 35.1878 27.9456 35.199L28.0169 30.8802C27.9924 27.4066 27.9683 23.933 27.9443 20.4594L28.6326 20.3412C29.7584 20.1569 30.8842 19.97 32.0108 19.7908C33.3553 19.5772 34.7011 19.3697 36.0465 19.1613C36.6399 19.0689 37.2341 18.9843 37.8288 18.8958Z" fill="#439934"/>
<path fill-rule="evenodd" clip-rule="evenodd" d="M26.5242 47.7888C25.798 47.1645 25.0465 46.5676 24.3504 45.9111C20.6048 42.3782 17.8651 38.2201 16.5159 33.2069C16.1442 31.8272 15.8963 30.4251 15.8168 28.9994C15.7609 28.0017 15.6802 26.9949 15.7506 26.0023C15.9384 23.3623 16.32 20.7477 17.0943 18.2048L17.1368 18.1455C17.212 18.2456 17.3203 18.3341 17.3585 18.4471C18.1143 20.6729 18.8646 22.9004 19.6109 25.1292C21.9562 32.1331 24.2984 39.1388 26.6475 46.1409C26.6935 46.2776 26.8125 46.3897 26.898 46.513L26.5242 47.7888Z" fill="#45A538"/>
<path fill-rule="evenodd" clip-rule="evenodd" d="M37.8288 18.8958C37.2342 18.9843 36.6395 19.069 36.0461 19.1605C34.7007 19.3689 33.3549 19.5764 32.0104 19.79C30.8838 19.9692 29.758 20.1561 28.6322 20.3404L27.9439 20.4586L27.9387 20.0095C27.9159 19.6404 27.8768 19.2718 27.8725 18.9027C27.8429 16.5488 27.8244 14.195 27.7952 11.8412C27.7772 10.3678 27.7501 8.89482 27.72 7.42185C27.7015 6.50662 27.6818 5.59095 27.6405 4.67701C27.6182 4.18587 27.5391 3.69732 27.5069 3.20619C27.4888 2.92388 27.5138 2.63943 27.5193 2.35583C27.8704 3.03603 28.2137 3.72138 28.5747 4.39642C29.1449 5.46376 30.0532 6.25009 30.8709 7.10818C34.1034 10.4993 36.3984 14.4421 37.8288 18.8958Z" fill="#46A037"/>
<path fill-rule="evenodd" clip-rule="evenodd" d="M27.9452 35.1986C27.98 35.1874 28.0405 35.1839 28.0461 35.1642C28.2571 34.4414 28.9038 34.5493 29.4263 34.4591C30.901 34.2038 32.3804 33.9735 33.8576 33.7342C35.2868 33.5026 36.7159 33.2697 38.1464 33.045C38.3157 33.0183 38.4923 33.0402 38.6654 33.0398C38.3982 33.9937 38.1876 34.9682 37.8486 35.8959C37.4636 36.9482 36.9978 37.9752 36.5032 38.982C35.7642 40.4872 34.8434 41.8909 33.7734 43.177C32.9489 44.1687 32.0298 45.0852 31.1085 45.9906C30.5993 46.4912 29.9991 46.8989 29.4405 47.3488L29.2957 47.25L28.774 46.804L28.2343 45.6211C27.8626 44.2362 27.6676 42.8264 27.6353 41.3938L27.6452 41.1527L27.7187 40.1103C27.7432 39.7545 27.7759 39.3992 27.7909 39.0425C27.8463 37.7612 27.8944 36.4799 27.9452 35.1986Z" fill="#409433"/>
<path fill-rule="evenodd" clip-rule="evenodd" d="M27.9451 35.1985C27.8944 36.4798 27.8463 37.7612 27.7917 39.0429C27.7767 39.3995 27.7441 39.7549 27.7196 40.1107L27.3908 40.2349C26.6608 38.0856 25.9303 35.959 25.2158 33.8269C24.0341 30.2996 22.8667 26.7667 21.6867 23.2386C20.7341 20.3906 19.7738 17.5456 18.8078 14.702C18.7627 14.5688 18.633 14.4648 18.5427 14.3471L20.6465 10.479C20.7187 10.6045 20.8141 10.7218 20.8596 10.8567C21.8328 13.7369 22.8044 16.6175 23.7677 19.5012C25.0207 23.2523 26.2659 27.0065 27.518 30.7581C27.5679 30.9081 27.6504 31.0464 27.729 31.2144L28.0169 30.8793C27.9928 32.3192 27.9688 33.7586 27.9451 35.1985Z" fill="#4FAA41"/>
<path fill-rule="evenodd" clip-rule="evenodd" d="M18.5432 14.3475C18.6334 14.4653 18.7627 14.5693 18.8083 14.7025C19.7742 17.5461 20.7346 20.3911 21.6872 23.2391C22.8671 26.7672 24.0346 30.3001 25.2162 33.8274C25.9304 35.9591 26.6608 38.086 27.3913 40.2353L27.72 40.1112L27.6465 41.1536L27.5799 41.3938C27.4656 42.535 27.3694 43.6789 27.2302 44.8175C27.1601 45.3882 27.0115 45.9485 26.8984 46.5135C26.8134 46.3902 26.6939 46.278 26.6479 46.1414C24.2988 39.1388 21.9566 32.1336 19.6114 25.1297C18.865 22.9009 18.1148 20.6734 17.359 18.4476C17.3207 18.3346 17.2129 18.2461 17.1372 18.146C17.6056 16.8797 18.0744 15.6134 18.5432 14.3475Z" fill="#4AA73C"/>
<path fill-rule="evenodd" clip-rule="evenodd" d="M28.0165 30.8797L27.7286 31.2149C27.65 31.0469 27.5675 30.9081 27.5176 30.7586C26.2659 27.007 25.0203 23.2528 23.7673 19.5016C22.8039 16.618 21.8324 13.7374 20.8592 10.8572C20.8141 10.7222 20.7187 10.6045 20.6461 10.4795L23.2478 7.05701C23.3299 7.16658 23.4468 7.26412 23.4893 7.38744C24.2116 9.50193 24.9275 11.619 25.639 13.7374C26.3038 15.7156 26.9586 17.6969 27.6311 19.6726C27.6762 19.805 27.833 19.8986 27.9379 20.0104L27.943 20.4594C27.9679 23.9321 27.9924 27.4061 28.0165 30.8797Z" fill="#57AE47"/>
<path fill-rule="evenodd" clip-rule="evenodd" d="M27.9387 20.0095C27.8339 19.8978 27.677 19.8041 27.6319 19.6718C26.9594 17.6961 26.3046 15.7148 25.6399 13.7365C24.9283 11.6181 24.2124 9.50149 23.4901 7.38657C23.4476 7.26325 23.3307 7.16571 23.2487 7.05614C24.0947 6.22771 24.9146 5.36962 25.7946 4.57942C26.577 3.87731 27.2061 3.1245 27.2349 2.01505C27.2362 1.96907 27.2602 1.9231 27.2972 1.79419L27.5202 2.35536C27.5146 2.63938 27.4892 2.92341 27.5077 3.20571C27.5399 3.69685 27.619 4.1854 27.6414 4.67653C27.6826 5.59048 27.7024 6.50614 27.7208 7.42138C27.7505 8.89435 27.7776 10.3673 27.796 11.8407C27.8248 14.1945 27.8437 16.5484 27.8734 18.9022C27.8768 19.2722 27.9155 19.6404 27.9387 20.0095Z" fill="#60B24F"/>
<path fill-rule="evenodd" clip-rule="evenodd" d="M26.8976 46.5131C27.0106 45.948 27.1592 45.3873 27.2293 44.8171C27.3689 43.6788 27.4648 42.5346 27.5791 41.3933L27.6074 41.389L27.6358 41.3938C27.668 42.8263 27.8631 44.2361 28.2348 45.621C28.1591 45.7207 28.0521 45.8097 28.0122 45.9222C27.6998 46.8031 27.4055 47.6908 27.0914 48.5717C27.0484 48.692 26.9289 48.7857 26.8447 48.8914L26.5237 47.7888L26.8976 46.5131Z" fill="#A9AA88"/>
<path fill-rule="evenodd" clip-rule="evenodd" d="M26.8452 48.8918C26.9294 48.7861 27.0493 48.6924 27.0918 48.5721C27.4059 47.6913 27.7007 46.804 28.0126 45.9227C28.0526 45.8101 28.1591 45.7211 28.2352 45.6215L28.7745 46.8048C28.6679 46.9561 28.5209 47.0923 28.4616 47.2607L27.4287 50.2939C27.3861 50.4155 27.2409 50.5014 27.1438 50.6041L26.8452 48.8918Z" fill="#B6B598"/>
<path fill-rule="evenodd" clip-rule="evenodd" d="M27.1438 50.6037C27.2413 50.5015 27.3861 50.4151 27.4287 50.2935L28.4616 47.2603C28.5205 47.0923 28.6679 46.9557 28.7745 46.8044L29.2965 47.25C29.0443 47.4992 28.9042 47.7871 28.9884 48.1511L28.8299 48.6701C28.7577 48.7591 28.6533 48.8364 28.6176 48.9383C28.2571 49.9708 27.9129 51.0089 27.5499 52.0415C27.5039 52.1725 27.3763 52.2752 27.286 52.3904C27.2392 51.7944 27.1915 51.1997 27.1438 50.6037Z" fill="#C2C1A7"/>
<path fill-rule="evenodd" clip-rule="evenodd" d="M27.2864 52.3904C27.3762 52.2748 27.5039 52.1721 27.5503 52.0415C27.9134 51.0094 28.2575 49.9713 28.618 48.9383C28.6537 48.8369 28.7577 48.7591 28.8303 48.6702L28.6116 51.0528C28.5532 51.1202 28.4685 51.1791 28.4406 51.2577C28.1935 51.9513 27.9606 52.6499 27.7127 53.3434C27.6616 53.4865 27.5636 53.6129 27.4871 53.7465C27.4192 53.6575 27.2976 53.5716 27.292 53.4788C27.2701 53.1174 27.2852 52.7535 27.2864 52.3904Z" fill="#CECDB7"/>
<path fill-rule="evenodd" clip-rule="evenodd" d="M27.4867 53.7464C27.5632 53.6124 27.6611 53.4861 27.7123 53.3434C27.9606 52.6503 28.1931 51.9516 28.4402 51.2577C28.4681 51.1791 28.5532 51.1206 28.6112 51.0527L28.6163 52.6168L28.093 53.9591L27.4867 53.7464Z" fill="#DBDAC7"/>
<path fill-rule="evenodd" clip-rule="evenodd" d="M28.093 53.9595L28.6163 52.6172L28.7242 54.2053L28.093 53.9595Z" fill="#EBE9DC"/>
<path fill-rule="evenodd" clip-rule="evenodd" d="M28.9884 48.1515C28.9042 47.7876 29.0439 47.4993 29.2965 47.2505L29.4413 47.3493L28.9884 48.1515Z" fill="#CECDB7"/>
<path fill-rule="evenodd" clip-rule="evenodd" d="M27.6358 41.3942L27.6074 41.3895L27.579 41.3938L27.6456 41.1536L27.6358 41.3942Z" fill="#4FAA41"/>
</svg>
