<svg viewBox="0 0 55 56" fill="none" xmlns="http://www.w3.org/2000/svg">
<path d="M48.4163 13.5341L29.4486 2.53195C28.2537 1.85133 26.6883 1.85133 25.4839 2.53195L6.36797 13.5341C5.1352 14.2435 4.29688 15.5768 4.29688 17.003V38.9781C4.29688 40.4042 5.15281 41.7379 6.38602 42.4512L11.4258 45.325C13.8437 46.5161 14.5136 46.5161 15.6136 46.5161C19.1946 46.5161 21.0543 44.3509 21.0543 40.5743V18.8794C21.0547 18.573 21.2459 18.1171 20.9447 18.1171H18.529C18.223 18.1171 17.6172 18.573 17.6172 18.879V40.5739C17.6172 42.248 16.0634 43.9139 13.2335 42.4989L8.02484 39.4855C7.84352 39.3867 7.73437 39.1877 7.73437 38.9781V17.003C7.73437 16.7959 7.93332 16.5879 8.11723 16.4818L27.1859 5.49852C27.3642 5.39754 27.6164 5.39754 27.7939 5.49852L46.6843 16.4792C46.8652 16.5879 46.8364 16.7894 46.8364 17.003V38.9781C46.8364 39.1877 46.8759 39.3918 46.6976 39.4928L27.7342 50.4825C27.5718 50.58 27.3603 50.58 27.182 50.4825L22.3193 47.5825C22.1727 47.4975 21.9961 47.467 21.8552 47.5456C20.5038 48.3117 20.2529 48.4136 18.9853 48.8531C18.6729 48.9618 18.2123 49.1505 19.1606 49.682L25.5191 53.4435C26.1276 53.7958 26.8198 53.9789 27.5159 53.9789C28.2214 53.9789 28.912 53.7958 29.5208 53.4435L48.4168 42.4512C49.6504 41.7328 50.2739 40.4042 50.2739 38.9781V17.003C50.2734 15.5768 49.65 14.247 48.4163 13.5341ZM33.3983 35.4959C28.3594 35.4959 27.2499 34.1058 26.88 31.6003C26.8361 31.3305 26.6075 31.0078 26.3325 31.0078H23.8704C23.5658 31.0078 23.3204 31.3773 23.3204 31.6807C23.3204 34.8887 25.065 38.7757 33.3983 38.7757C39.4303 38.7757 42.8893 36.4317 42.8893 32.2835C42.8893 28.1705 40.1105 27.0912 34.2603 26.3169C28.3469 25.5353 27.7462 25.1404 27.7462 23.7551C27.7462 22.613 28.255 21.0897 32.6335 21.0897C36.5453 21.0897 37.9874 21.9293 38.5808 24.5663C38.6319 24.8143 38.8584 24.9921 39.114 24.9921H41.5864C41.7386 24.9921 41.8834 24.9307 41.9899 24.822C42.0935 24.7051 42.1476 24.5586 42.1343 24.4013C41.7506 19.86 38.7342 17.7438 32.633 17.7438C27.2052 17.7438 23.968 20.0357 23.968 23.8775C23.968 28.0446 27.1893 29.1962 32.3993 29.7114C38.6319 30.3224 39.1166 31.2334 39.1166 32.4593C39.1166 34.5888 37.4073 35.4959 33.3983 35.4959Z" fill="#83CD29"/>
</svg>
